HIERARCHY
ROOT Hips
{
	OFFSET 0.00000 0.00000 0.00000
	CHANNELS 6 Xposition Yposition Zposition Zrotation Yrotation Xrotation 
	JOINT LHipJoint
	{
		OFFSET 0 0 0
		CHANNELS 3 Zrotation Yrotation Xrotation
		JOINT LeftUpLeg
		{
			OFFSET 1.29432 -1.88279 0.59910
			CHANNELS 3 Zrotation Yrotation Xrotation
			JOINT LeftLeg
			{
				OFFSET 2.63039 -7.22694 0.00000
				CHANNELS 3 Zrotation Yrotation Xrotation
				JOINT LeftFoot
				{
					OFFSET 2.70674 -7.43672 0.00000
					CHANNELS 3 Zrotation Yrotation Xrotation
					JOINT LeftToeBase
					{
						OFFSET 0.15066 -0.41394 2.09027
						CHANNELS 3 Zrotation Yrotation Xrotation
						End Site
						{
							OFFSET 0.00000 -0.00000 1.07518
						}
					}
				}
			}
		}
	}
	JOINT RHipJoint
	{
		OFFSET 0 0 0
		CHANNELS 3 Zrotation Yrotation Xrotation
		JOINT RightUpLeg
		{
			OFFSET -1.37068 -1.88279 0.59910
			CHANNELS 3 Zrotation Yrotation Xrotation
			JOINT RightLeg
			{
				OFFSET -2.57023 -7.06166 0.00000
				CHANNELS 3 Zrotation Yrotation Xrotation
				JOINT RightFoot
				{
					OFFSET -2.76461 -7.59570 0.00000
					CHANNELS 3 Zrotation Yrotation Xrotation
					JOINT RightToeBase
					{
						OFFSET -0.24175 -0.64785 2.19719
						CHANNELS 3 Zrotation Yrotation Xrotation
						End Site
						{
							OFFSET -0.00000 -0.00000 1.14803
						}
					}
				}
			}
		}
	}
	JOINT LowerBack
	{
		OFFSET 0 0 0
		CHANNELS 3 Zrotation Yrotation Xrotation
		JOINT Spine
		{
			OFFSET -0.03138 2.03983 -0.23106
			CHANNELS 3 Zrotation Yrotation Xrotation
			JOINT Spine1
			{
				OFFSET -0.00325 2.06238 -0.06878
				CHANNELS 3 Zrotation Yrotation Xrotation
				JOINT Neck
				{
					OFFSET 0 0 0
					CHANNELS 3 Zrotation Yrotation Xrotation
					JOINT Neck1
					{
						OFFSET -0.00002 1.75318 0.18090
						CHANNELS 3 Zrotation Yrotation Xrotation
						JOINT Head
						{
							OFFSET 0.08806 1.75856 -0.25387
							CHANNELS 3 Zrotation Yrotation Xrotation
							End Site
							{
								OFFSET 0.02554 1.78597 -0.10684
							}
						}
					}
				}
				JOINT LeftShoulder
				{
					OFFSET 0 0 0
					CHANNELS 3 Zrotation Yrotation Xrotation
					JOINT LeftArm
					{
						OFFSET 3.09657 1.33597 -0.04414
						CHANNELS 3 Zrotation Yrotation Xrotation
						JOINT LeftForeArm
						{
							OFFSET 5.34298 -0.00000 -0.00000
							CHANNELS 3 Zrotation Yrotation Xrotation
							JOINT LeftHand
							{
								OFFSET 3.67262 -0.00000 -0.00000
								CHANNELS 3 Zrotation Yrotation Xrotation
								JOINT LeftFingerBase
								{
									OFFSET 0 0 0
									CHANNELS 3 Zrotation Yrotation Xrotation
									JOINT LeftHandIndex1
									{
										OFFSET 0.59930 -0.00000 -0.00000
										CHANNELS 3 Zrotation Yrotation Xrotation
										End Site
										{
											OFFSET 0.48317 -0.00000 -0.00000
										}
									}
								}
								JOINT LThumb
								{
									OFFSET 0 0 0
									CHANNELS 3 Zrotation Yrotation Xrotation
									End Site
									{
										OFFSET 0.49055 -0.00000 0.49055
									}
								}
							}
						}
					}
				}
				JOINT RightShoulder
				{
					OFFSET 0 0 0
					CHANNELS 3 Zrotation Yrotation Xrotation
					JOINT RightArm
					{
						OFFSET -3.16460 1.32273 -0.23382
						CHANNELS 3 Zrotation Yrotation Xrotation
						JOINT RightForeArm
						{
							OFFSET -5.54967 -0.01834 0.03348
							CHANNELS 3 Zrotation Yrotation Xrotation
							JOINT RightHand
							{
								OFFSET -3.69401 -0.00000 0.00000
								CHANNELS 3 Zrotation Yrotation Xrotation
								JOINT RightFingerBase
								{
									OFFSET 0 0 0
									CHANNELS 3 Zrotation Yrotation Xrotation
									JOINT RightHandIndex1
									{
										OFFSET -0.63811 -0.00000 0.00000
										CHANNELS 3 Zrotation Yrotation Xrotation
										End Site
										{
											OFFSET -0.51446 -0.00000 0.00000
										}
									}
								}
								JOINT RThumb
								{
									OFFSET 0 0 0
									CHANNELS 3 Zrotation Yrotation Xrotation
									End Site
									{
										OFFSET -0.52232 -0.00000 0.52232
									}
								}
							}
						}
					}
				}
			}
		}
	}
}
MOTION
Frames: 6
Frame Time: .0083333
23.9362 18.8718 4.8863 4.3551 -14.8205 1.3089 0.0000 0.0000 0.0000 -24.4999 -0.0479 -15.8152 0.9331 6.1533 17.2299 0.0712 -2.1893 -4.7573 0.1372 2.3873 6.5772 0.0000 0.0000 0.0000 15.1849 9.2768 1.0697 -6.3055 -14.7180 46.1957 -1.1835 -0.9648 20.2724 -0.2062 2.9239 -8.0670 -6.0909 0.4842 -1.0671 -5.0338 0.7526 0.2794 -1.7582 0.3482 0.8774 -14.0519 -14.4924 -0.1294 18.8321 -22.2395 13.4468 6.2627 -10.6382 7.9040 0.0000 0.0000 0.0000 -84.7737 12.9704 -17.8621 8.0491 -13.6324 -0.9637 -0.0000 -0.0000 38.0660 8.7617 31.6751 4.6269 -7.1250 0.0000 -0.0000 -26.5270 59.9481 -10.1016 0.0000 0.0000 0.0000 95.1239 -1.3822 27.2678 -17.4360 27.4289 -4.2862 0.0000 0.0000 21.1730 -26.8200 22.1389 -10.7871 7.1250 -0.0000 -0.0000 1.2770 -5.4771 1.1495
23.9475 18.8796 5.0389 4.4290 -14.8634 0.9447 0.0000 0.0000 0.0000 -24.7853 0.5117 -14.9269 0.9072 6.0697 16.9867 0.0790 -2.4743 -5.0252 0.1416 2.4256 6.6833 0.0000 0.0000 0.0000 14.9750 9.4421 0.1036 -6.8467 -15.2014 48.2922 -1.2068 -1.5365 20.3173 -0.2089 2.9428 -8.1196 -6.0804 0.4073 -0.6835 -4.9952 0.6086 0.2415 -1.7291 0.2813 0.6240 -14.5268 -14.3846 0.1305 19.0377 -22.1169 13.3308 6.4379 -10.6128 7.8801 -0.0000 -0.0000 0.0000 -84.7956 13.2959 -16.9809 8.0791 -13.6811 -0.9708 -0.0000 -0.0000 37.5979 8.0211 31.3673 4.1952 -7.1250 0.0000 -0.0000 -27.0120 59.5062 -10.0143 -0.0000 -0.0000 0.0000 95.0360 -1.8832 25.8273 -16.2798 25.8985 -3.7673 0.0000 0.0000 22.1254 -26.2054 21.6571 -10.2949 7.1250 -0.0000 -0.0000 1.6028 -6.1150 1.4236
23.9546 18.8888 5.1814 4.7126 -14.7709 0.7329 0.0000 0.0000 0.0000 -25.2424 0.8205 -14.2934 0.8985 6.0413 16.9044 0.0895 -2.7489 -5.3629 0.1863 2.7797 7.6660 0.0000 0.0000 0.0000 14.4550 9.5825 -1.1517 -7.3881 -15.6501 50.3272 -1.1840 -3.4645 19.7105 -0.0248 1.0161 -2.7930 -6.3578 0.3488 -0.3711 -4.9915 0.4934 0.1499 -1.5750 0.2288 0.3531 -14.9353 -14.3180 0.2937 19.2857 -22.0554 13.2153 6.6004 -10.6046 7.8823 0.0000 -0.0000 0.0000 -84.7262 13.6087 -15.3291 8.1092 -13.7298 -0.9779 -0.0000 -0.0000 37.3467 8.8551 30.6467 4.5406 -7.1250 0.0000 -0.0000 -25.5580 59.0565 -9.1511 0.0000 -0.0000 0.0000 94.9457 -2.2519 23.8191 -15.1059 24.2934 -3.2694 0.0000 0.0000 23.4225 -25.2853 21.1002 -9.6513 7.1250 -0.0000 -0.0000 2.1191 -6.8822 1.8512
23.9636 18.8897 5.3198 4.8368 -14.7088 0.6041 0.0000 0.0000 0.0000 -25.5156 0.9684 -13.6065 0.8849 5.9967 16.7747 0.1050 -2.8463 -5.7939 0.2396 3.1501 8.6970 0.0000 0.0000 0.0000 14.1440 9.6387 -2.4618 -7.9261 -16.0647 52.2962 -1.0827 -4.7728 18.6563 -0.0056 0.4839 -1.3298 -6.4570 0.3148 -0.2006 -4.9560 0.4322 0.1662 -1.4845 0.1994 0.2742 -14.8210 -14.3740 -0.0592 19.0207 -22.0636 13.3099 6.4657 -10.5884 7.9297 -0.0000 0.0000 0.0000 -84.7007 13.6450 -13.9346 8.2957 -14.0310 -1.0226 -0.0000 -0.0000 37.0332 8.1751 30.4016 4.1581 -7.1250 0.0000 -0.0000 -26.0455 58.6867 -9.1066 -0.0000 0.0000 0.0000 94.9980 -2.4039 20.7833 -13.9619 22.6802 -2.8134 0.0000 0.0000 25.8060 -23.9333 20.2557 -8.7358 7.1250 -0.0000 -0.0000 2.8920 -8.0166 2.4637
23.9706 18.8910 5.4586 4.6601 -14.5686 0.5699 0.0000 0.0000 0.0000 -25.5348 1.2064 -12.9795 0.8679 5.9401 16.6108 0.1198 -2.9630 -6.1831 0.1370 2.3855 6.5724 0.0000 0.0000 0.0000 14.2040 9.4037 -3.8718 -8.4436 -16.4360 54.1452 -0.9767 -4.6540 17.6999 -0.0945 1.9829 -5.4583 -6.3550 0.1375 -0.1333 -4.8273 0.1943 0.2248 -1.4087 0.0799 0.3019 -14.3693 -14.3652 -0.3894 18.4751 -21.9107 13.2574 6.2224 -10.5013 7.8195 -0.0000 -0.0000 0.0000 -84.7439 13.5006 -13.3798 8.4694 -14.3109 -1.0652 -0.0000 -0.0000 37.0523 6.5200 30.6491 3.3344 -7.1250 0.0000 -0.0000 -27.9090 58.5395 -9.7227 -0.0000 -0.0000 0.0000 95.0916 -2.3623 17.2224 -12.7538 20.9254 -2.3646 0.0000 0.0000 29.1946 -22.7589 19.8206 -8.0959 7.1250 -0.0000 -0.0000 3.6056 -8.6656 3.0274
23.9753 18.8998 5.5997 4.9555 -14.3935 0.4262 0.0000 0.0000 0.0000 -26.0847 1.6904 -12.5395 0.8589 5.9102 16.5240 0.1316 -3.1948 -6.4902 0.0502 1.4454 3.9753 0.0000 0.0000 0.0000 13.6588 9.1659 -5.2819 -8.9405 -16.7693 55.8842 -0.8202 -5.5414 16.1446 -0.0263 1.0476 -2.8799 -6.8194 -0.1214 -0.1240 -4.7477 -0.1453 0.2889 -1.0710 -0.0932 0.3720 -14.2655 -14.2293 -0.3652 18.3519 -21.6277 12.8739 6.2177 -10.3812 7.6119 0.0000 -0.0000 0.0000 -84.8655 13.3171 -12.5622 8.6197 -14.5523 -1.1026 -0.0000 -0.0000 36.1796 4.9284 31.1474 2.5538 -7.1250 0.0000 -0.0000 -29.9149 58.6201 -10.5615 0.0000 -0.0000 0.0000 95.0220 -2.0427 13.6068 -11.4002 18.8991 -1.9035 0.0000 0.0000 32.7792 -22.7426 20.3220 -8.2830 7.1250 -0.0000 -0.0000 3.6602 -8.1376 3.1118
